<svg xmlns="http://www.w3.org/2000/svg" viewBox="0 0 200 200">
  <!-- Background Circle with Gradient -->
  <defs>
    <linearGradient id="botGradient" x1="0%" y1="0%" x2="100%" y2="100%">
      <stop offset="0%" stop-color="#3A3A3A" />
      <stop offset="100%" stop-color="#000000" />
    </linearGradient>
    <linearGradient id="glowGradient" x1="0%" y1="0%" x2="100%" y2="100%">
      <stop offset="0%" stop-color="#70C1FF" />
      <stop offset="100%" stop-color="#3366FF" />
    </linearGradient>
  </defs>
  
  <!-- Outer Glow -->
  <circle cx="100" cy="100" r="98" fill="url(#glowGradient)" />
  
  <!-- Background Circle -->
  <circle cx="100" cy="100" r="90" fill="url(#botGradient)" stroke="#444444" stroke-width="2" />
  
  <!-- Large "J" Letter -->
  <path d="M75 50 H125 Q130 50, 130 55 V110 Q130 130, 110 130 H90 Q70 130, 70 110" 
        stroke="#FFFFFF" stroke-width="12" fill="none" stroke-linecap="round" stroke-linejoin="round" />
  
  <!-- Inner Highlight for J -->
  <path d="M75 50 H125 Q130 50, 130 55 V110 Q130 130, 110 130 H90 Q70 130, 70 110" 
        stroke="#70C1FF" stroke-width="6" fill="none" stroke-linecap="round" stroke-linejoin="round" />
  
  <!-- Decorative Elements -->
  <circle cx="58" cy="70" r="5" fill="#70C1FF" />
  <circle cx="142" cy="70" r="5" fill="#70C1FF" />
  <circle cx="58" cy="130" r="5" fill="#70C1FF" />
  <circle cx="142" cy="130" r="5" fill="#70C1FF" />
  
  <!-- Subtle Reflections -->
  <ellipse cx="70" cy="50" rx="20" ry="10" fill="#FFFFFF" opacity="0.1" />
  <ellipse cx="130" cy="140" rx="25" ry="8" fill="#FFFFFF" opacity="0.1" />
</svg>